<?xml version="1.0" encoding="utf-8"?>
<!-- Generator: Adobe Illustrator 25.0.1, SVG Export Plug-In . SVG Version: 6.00 Build 0)  -->
<svg version="1.1" id="Layer_1" xmlns="http://www.w3.org/2000/svg" xmlns:xlink="http://www.w3.org/1999/xlink" x="0px" y="0px"
	 viewBox="0 0 200 172.8" style="enable-background:new 0 0 200 172.8;" xml:space="preserve">
<style type="text/css">
	.st0{fill:#161616;}
	.st1{fill:#FFFFFF;}
	.st2{fill:#F7F7F7;}
	.st3{fill:#F04D5D;}
</style>
<path class="st3" d="M150.1,0H49.8L0,86.4l49.9,86.4h100.3L200,86.4L150.1,0z M143.2,11.1c0,0,40.3,69.8,40.3,69.8h-57.8
	c-2.8-14.4-18.8-24.1-33.1-19.6L64.3,11.1H143.2z M13.3,86.4l40.6-70.3L82.5,67c-11.4,9.4-11.5,29.6-0.1,39l-28.5,50.7L13.3,86.4z
	 M143.2,161.7c0,0-78.9,0-78.9,0l28.1-50.1c14.4,4.6,30.5-5.2,33.2-19.7h57.8L143.2,161.7z"/>
</svg>
